<?xml version="1.0" encoding="UTF-8"?>
<svg version="1.1" xmlns="http://www.w3.org/2000/svg" width="32" height="32">
	<path d="M0 0 C8.66666667 0 17.33333333 0 26 0 C26.04898437 1.05960937 26.09796875 2.11921875 26.1484375 3.2109375 C26.22346709 4.59898497 26.29901485 5.98700451 26.375 7.375 C26.4059375 8.07367188 26.436875 8.77234375 26.46875 9.4921875 C26.59499498 13.70185827 26.59499498 13.70185827 29 17 C29.30078125 19.05859375 29.30078125 19.05859375 29.3125 21.4375 C29.32925781 22.21996094 29.34601562 23.00242187 29.36328125 23.80859375 C29 26 29 26 27.765625 27.765625 C25.51720778 29.3375273 24.16068768 29.37082198 21.4375 29.3125 C20.65246094 29.30863281 19.86742188 29.30476563 19.05859375 29.30078125 C17 29 17 29 15 27 C12.42314322 26.69309346 9.95896697 26.48985507 7.375 26.375 C3.724375 26.189375 3.724375 26.189375 0 26 C0 17.42 0 8.84 0 0 Z M4 8 C4 12.62 4 17.24 4 22 C6.97 22 9.94 22 13 22 C13 21.34 13 20.68 13 20 C12.34 20 11.68 20 11 20 C11 18.68 11 17.36 11 16 C12.65 16 14.3 16 16 16 C16 14.35 16 12.7 16 11 C17.32 11 18.64 11 20 11 C20 11.66 20 12.32 20 13 C20.66 13 21.32 13 22 13 C22.33 11.35 22.66 9.7 23 8 C16.73 8 10.46 8 4 8 Z M19 17 C16.7508092 18.82703227 16.7508092 18.82703227 16.75 21.5 C16.7508092 24.17296773 16.7508092 24.17296773 19 26 C21.58354218 26.16687448 21.58354218 26.16687448 24 26 C23.34 25.01 22.68 24.02 22 23 C21.34 23 20.68 23 20 23 C20 21.02 20 19.04 20 17 C19.67 17 19.34 17 19 17 Z M23 17 C23.57452746 20.93075644 23.57452746 20.93075644 26 24 C26.25030977 21.58380177 26.25030977 21.58380177 26 19 C25.01 18.34 24.02 17.68 23 17 Z " fill="#218AE5" transform="translate(3,3)"/>
	<path d="M0 0 C1.32 0 2.64 0 4 0 C4 1.32 4 2.64 4 4 C2.68 4 1.36 4 0 4 C0 2.68 0 1.36 0 0 Z " fill="#228BE6" transform="translate(9,19)"/>
	<path d="M0 0 C1.32 0 2.64 0 4 0 C4 1.32 4 2.64 4 4 C2.68 4 1.36 4 0 4 C0 2.68 0 1.36 0 0 Z " fill="#228BE6" transform="translate(14,14)"/>
	<path d="M0 0 C1.32 0 2.64 0 4 0 C4 1.32 4 2.64 4 4 C2.68 4 1.36 4 0 4 C0 2.68 0 1.36 0 0 Z " fill="#228BE6" transform="translate(9,14)"/>
	<path d="" fill="#228BE6" transform="translate(0,0)"/>
	<path d="" fill="#228BE6" transform="translate(0,0)"/>
	<path d="" fill="#228BE6" transform="translate(0,0)"/>
	<path d="" fill="#228BE6" transform="translate(0,0)"/>
	<path d="" fill="#228BE6" transform="translate(0,0)"/>
	<path d="" fill="#228BE6" transform="translate(0,0)"/>
	<path d="" fill="#228BE6" transform="translate(0,0)"/>
	<path d="" fill="#228BE6" transform="translate(0,0)"/>
</svg>
